<?xml version="1.0" encoding="UTF-8"?>
<svg width="20px" height="20px" viewBox="0 0 20 20" version="1.1" xmlns="http://www.w3.org/2000/svg" xmlns:xlink="http://www.w3.org/1999/xlink">
    <!-- Generator: Sketch 53.2 (72643) - https://sketchapp.com -->
    <title>round-sentiment_satisfied-24px</title>
    <desc>Created with Sketch.</desc>
    <g id="PC-web" stroke="none" stroke-width="1" fill="none" fill-rule="evenodd">
        <g id="Web-live-class" transform="translate(-1326.000000, -772.000000)">
            <g id="Group-3" transform="translate(1308.000000, 251.000000)">
                <g id="round-sentiment_satisfied-24px" transform="translate(16.000000, 519.000000)">
                    <polygon id="Path" points="0 0 24 0 24 24 0 24"></polygon>
                    <circle id="Oval" fill="#000000" fill-rule="nonzero" cx="15.5" cy="9.5" r="1.5"></circle>
                    <circle id="Oval" fill="#000000" fill-rule="nonzero" cx="8.5" cy="9.5" r="1.5"></circle>
                    <path d="M11.99,2 C6.47,2 2,6.48 2,12 C2,17.52 6.47,22 11.99,22 C17.52,22 22,17.52 22,12 C22,6.48 17.52,2 11.99,2 Z M12,20 C7.58,20 4,16.42 4,12 C4,7.58 7.58,4 12,4 C16.42,4 20,7.58 20,12 C20,16.42 16.42,20 12,20 Z M16.41,13.89 C16.06,13.67 15.59,13.78 15.38,14.13 C14.64,15.3 13.38,16 12,16 C10.62,16 9.36,15.3 8.62,14.12 C8.4,13.77 7.94,13.66 7.59,13.88 C7.24,14.1 7.13,14.56 7.35,14.91 C8.37,16.54 10.1,17.5 12,17.5 C13.9,17.5 15.63,16.53 16.65,14.92 C16.87,14.57 16.76,14.11 16.41,13.89 Z" id="Shape" fill="#000000" fill-rule="nonzero"></path>
                </g>
            </g>
        </g>
    </g>
</svg>