<?xml version="1.0" encoding="UTF-8"?>
<svg width="18px" height="20px" viewBox="0 0 18 20" version="1.1" xmlns="http://www.w3.org/2000/svg" xmlns:xlink="http://www.w3.org/1999/xlink">
    <!-- Generator: Sketch 53.2 (72643) - https://sketchapp.com -->
    <title>icon/social/share_24px</title>
    <desc>Created with Sketch.</desc>
    <defs>
        <path d="M1210,832.136546 C1209.24,832.136546 1208.56,832.437751 1208.04,832.909639 L1200.91,828.742972 C1200.96,828.512048 1201,828.281124 1201,828.040161 C1201,827.799197 1200.96,827.568273 1200.91,827.337349 L1207.96,823.210843 C1208.5,823.712851 1209.21,824.024096 1210,824.024096 C1211.66,824.024096 1213,822.678715 1213,821.012048 C1213,819.345382 1211.66,818 1210,818 C1208.34,818 1207,819.345382 1207,821.012048 C1207,821.253012 1207.04,821.483936 1207.09,821.714859 L1200.04,825.841365 C1199.5,825.339357 1198.79,825.028112 1198,825.028112 C1196.34,825.028112 1195,826.373494 1195,828.040161 C1195,829.706827 1196.34,831.052209 1198,831.052209 C1198.79,831.052209 1199.5,830.740964 1200.04,830.238956 L1207.16,834.415663 C1207.11,834.626506 1207.08,834.84739 1207.08,835.068273 C1207.08,836.684739 1208.39,838 1210,838 C1211.61,838 1212.92,836.684739 1212.92,835.068273 C1212.92,833.451807 1211.61,832.136546 1210,832.136546 Z" id="path-1"></path>
    </defs>
    <g id="PC-web" stroke="none" stroke-width="1" fill="none" fill-rule="evenodd">
        <g id="Web-live-class" transform="translate(-1195.000000, -818.000000)">
            <mask id="mask-2" fill="white">
                <use xlink:href="#path-1"></use>
            </mask>
            <use id="icon/social/share_24px" fill="#1786CB" fill-rule="nonzero" xlink:href="#path-1"></use>
        </g>
    </g>
</svg>